<?xml version="1.0" standalone="no"?>
<!DOCTYPE svg PUBLIC "-//W3C//DTD SVG 20010904//EN"
 "http://www.w3.org/TR/2001/REC-SVG-20010904/DTD/svg10.dtd">
<svg version="1.0" xmlns="http://www.w3.org/2000/svg"
 width="2828.000000pt" height="2828.000000pt" viewBox="0 0 2828.000000 2828.000000"
 preserveAspectRatio="xMidYMid meet">

<g transform="translate(0.000000,2828.000000) scale(0.100000,-0.100000)"
fill="#000000" stroke="none">
<path d="M20464 26146 c-3 -8 -20 -18 -37 -21 -61 -13 -326 -153 -367 -195 -3
-3 -41 -32 -85 -65 -106 -80 -109 -82 -174 -139 -245 -214 -740 -708 -1152
-1150 -87 -93 -245 -236 -280 -253 -110 -53 -141 -62 -272 -78 -117 -15 -156
-16 -245 -6 -59 6 -181 16 -272 22 -91 5 -192 14 -225 19 -132 20 -346 24
-455 7 -58 -9 -145 -21 -195 -27 -49 -6 -112 -17 -139 -25 -27 -8 -61 -15 -75
-15 -15 0 -53 -7 -85 -15 -32 -9 -104 -22 -160 -30 -55 -8 -117 -19 -136 -25
-19 -6 -106 -14 -193 -17 -156 -6 -158 -6 -230 23 -40 15 -83 36 -97 45 -14 9
-45 29 -70 45 -45 28 -236 177 -255 198 -5 7 -48 44 -95 83 -90 75 -387 374
-481 483 -31 36 -76 88 -100 115 -56 64 -187 227 -264 330 -80 106 -346 374
-415 417 -137 86 -208 110 -340 115 -177 8 -275 -19 -364 -99 -31 -27 -56 -54
-56 -59 0 -5 -16 -33 -35 -63 -41 -65 -81 -151 -89 -197 -4 -19 -15 -63 -26
-99 -10 -36 -29 -128 -41 -205 -20 -126 -22 -176 -22 -505 1 -207 6 -393 12
-430 5 -36 15 -112 21 -170 6 -58 18 -166 27 -240 21 -191 32 -411 33 -661 0
-132 6 -254 14 -315 8 -54 17 -151 21 -214 7 -131 55 -340 105 -455 44 -101
50 -117 50 -131 0 -19 -24 -97 -52 -166 -10 -26 -18 -55 -18 -65 -1 -10 -9
-36 -20 -58 -11 -22 -19 -45 -20 -52 0 -12 -36 -134 -67 -227 -9 -28 -20 -66
-24 -85 -4 -20 -14 -54 -23 -76 -8 -22 -15 -55 -16 -74 0 -18 -10 -72 -22
-120 -19 -77 -21 -114 -21 -356 -1 -235 2 -285 20 -385 12 -63 27 -162 32
-220 6 -58 15 -130 21 -160 12 -65 -21 -403 -47 -484 -8 -26 -21 -74 -28 -105
-16 -67 -41 -141 -66 -197 -11 -22 -19 -46 -19 -52 0 -15 -137 -275 -181 -342
-5 -8 -16 -28 -24 -45 -45 -95 -214 -268 -295 -302 -19 -8 -42 -20 -50 -27
-20 -16 -117 -53 -160 -61 -19 -4 -62 -15 -95 -25 -123 -38 -212 -59 -273 -65
-35 -3 -76 -11 -90 -16 -14 -6 -62 -15 -107 -20 -44 -5 -102 -16 -130 -24 -51
-15 -141 -35 -275 -60 -41 -8 -86 -19 -100 -25 -14 -5 -43 -12 -65 -15 -22 -4
-60 -14 -85 -24 -25 -10 -70 -28 -100 -38 -138 -50 -206 -78 -220 -89 -8 -7
-31 -19 -50 -28 -19 -8 -71 -35 -115 -60 -44 -24 -111 -61 -150 -82 -38 -20
-99 -56 -135 -80 -126 -84 -244 -166 -258 -180 -7 -8 -30 -27 -50 -41 -60 -44
-186 -147 -202 -164 -8 -9 -53 -49 -100 -90 -185 -162 -435 -431 -628 -678
-15 -18 -32 -39 -38 -45 -6 -6 -29 -38 -53 -71 -23 -33 -60 -85 -82 -115 -22
-30 -47 -66 -56 -80 -10 -14 -31 -43 -48 -64 -16 -22 -37 -52 -45 -67 -14 -25
-84 -140 -187 -306 -23 -38 -61 -104 -83 -148 -23 -44 -72 -138 -110 -210 -89
-169 -160 -314 -160 -328 0 -8 -11 -33 -108 -247 -11 -25 -26 -58 -32 -75 -7
-16 -24 -57 -37 -90 -14 -33 -31 -80 -38 -105 -8 -25 -26 -76 -40 -115 -15
-38 -33 -90 -41 -115 -8 -25 -18 -54 -24 -65 -14 -29 -49 -133 -65 -190 -7
-27 -18 -63 -24 -80 -6 -16 -18 -57 -26 -90 -9 -33 -25 -91 -36 -130 -11 -38
-28 -101 -39 -140 -10 -38 -30 -110 -44 -160 -14 -49 -32 -127 -40 -172 -8
-45 -17 -87 -21 -93 -4 -6 -13 -46 -20 -88 -7 -42 -20 -106 -28 -142 -18 -77
-34 -154 -48 -230 -29 -159 -49 -281 -54 -330 -3 -30 -12 -82 -20 -115 -8 -33
-17 -91 -20 -130 -4 -38 -13 -95 -20 -125 -8 -30 -19 -98 -24 -150 -6 -52 -15
-110 -20 -129 -6 -18 -15 -78 -21 -133 -6 -55 -16 -111 -21 -126 -5 -14 -14
-87 -19 -161 -6 -75 -15 -164 -20 -198 -6 -34 -17 -148 -25 -255 -9 -106 -20
-213 -25 -238 -19 -85 -33 -886 -20 -1105 12 -209 41 -432 65 -500 8 -22 18
-66 24 -97 19 -105 125 -296 193 -346 16 -11 14 -17 -18 -75 -18 -34 -39 -73
-45 -87 -5 -14 -26 -59 -46 -100 -98 -207 -149 -347 -173 -480 -6 -36 -17 -68
-23 -72 -17 -10 -17 -379 0 -400 7 -8 17 -59 24 -114 6 -54 17 -124 24 -154 7
-30 16 -84 20 -120 3 -36 15 -110 25 -165 10 -55 23 -134 29 -175 17 -120 48
-287 56 -299 3 -7 11 -42 16 -79 5 -37 16 -89 24 -117 8 -27 21 -77 29 -110 7
-33 24 -94 35 -135 21 -74 44 -155 76 -275 9 -33 22 -73 30 -90 7 -16 18 -46
24 -65 5 -19 22 -66 36 -105 15 -38 33 -89 40 -111 7 -23 21 -56 29 -72 9 -17
16 -39 16 -49 0 -10 9 -35 20 -56 11 -20 20 -42 20 -49 0 -11 14 -43 59 -143
11 -22 29 -62 41 -90 24 -53 60 -134 90 -200 10 -22 28 -60 38 -85 47 -108 73
-166 82 -180 5 -8 28 -51 51 -95 64 -121 76 -143 125 -230 24 -44 53 -98 64
-120 11 -22 41 -76 65 -120 25 -44 52 -95 60 -113 22 -47 197 -218 284 -277
134 -91 264 -159 401 -209 41 -16 89 -34 106 -41 18 -8 49 -17 70 -20 22 -4
65 -15 97 -26 31 -10 63 -19 70 -19 6 0 41 -9 77 -19 92 -28 192 -51 285 -66
44 -7 92 -18 106 -23 14 -6 52 -13 85 -17 32 -3 88 -15 124 -24 85 -24 142
-39 214 -57 33 -8 69 -22 80 -30 11 -8 27 -14 36 -14 9 0 33 -9 55 -20 22 -11
43 -20 48 -20 5 0 91 -40 191 -89 223 -109 370 -179 461 -220 39 -17 88 -40
110 -50 22 -10 74 -31 115 -46 41 -15 94 -35 118 -46 23 -10 49 -19 58 -19 8
0 32 -9 54 -20 22 -11 50 -20 62 -20 13 -1 41 -8 63 -16 22 -9 65 -21 95 -28
30 -7 64 -17 75 -23 11 -6 40 -14 65 -18 25 -3 65 -13 90 -20 25 -8 68 -17 95
-20 28 -3 88 -15 135 -25 143 -31 267 -51 389 -61 64 -5 152 -16 196 -24 44
-8 125 -17 180 -20 55 -3 174 -12 265 -21 91 -8 291 -21 445 -30 154 -8 314
-18 355 -24 41 -5 458 -9 925 -9 717 -1 860 1 907 14 38 10 159 18 375 25 175
6 374 17 443 25 69 8 168 17 220 20 52 3 140 12 195 20 55 8 167 19 249 25 82
6 152 13 156 15 3 2 70 11 149 20 79 9 154 20 167 25 13 5 63 14 111 20 49 6
111 17 138 25 28 7 79 16 115 20 36 3 88 12 115 19 28 8 77 17 110 20 62 7
190 34 305 66 36 10 88 22 115 28 72 15 231 62 320 94 17 5 50 16 75 24 68 20
161 53 195 68 48 22 140 56 150 56 5 0 27 8 49 19 23 10 75 30 116 45 41 16
94 36 118 47 23 10 47 19 53 19 6 0 36 12 67 26 31 14 77 35 102 46 25 10 59
25 75 33 17 7 59 25 95 40 122 50 234 104 355 171 44 25 98 54 120 64 81 40
106 58 333 237 35 28 116 133 145 188 39 74 67 180 67 251 0 70 -32 217 -60
279 -10 22 -39 83 -64 136 -25 53 -46 99 -46 103 0 7 -81 125 -124 181 -17 22
-45 59 -61 83 -43 64 -300 286 -365 316 -19 8 -42 20 -50 25 -42 28 -170 95
-205 107 -178 64 -345 115 -403 124 -38 5 -80 14 -93 19 -13 4 -53 12 -89 15
-36 4 -99 15 -140 23 -62 14 -148 17 -505 17 -305 0 -446 -4 -486 -12 -30 -7
-129 -19 -220 -28 -90 -8 -179 -17 -196 -20 -27 -5 -33 -3 -33 11 0 16 66 142
111 210 18 29 26 44 70 145 11 25 24 52 29 61 22 43 70 173 70 192 0 12 7 36
16 52 8 17 20 55 25 85 5 30 16 82 24 115 37 158 54 569 35 855 -7 107 -14
310 -14 450 -1 211 2 265 16 315 16 59 38 146 63 255 7 30 20 69 29 85 9 17
16 38 16 48 0 10 7 32 16 49 9 17 22 51 29 77 7 25 25 78 40 116 14 39 32 90
40 115 8 25 26 77 40 115 15 39 33 90 41 115 8 25 21 59 29 77 8 17 15 34 15
38 0 6 30 73 71 161 10 23 19 47 19 54 0 6 7 24 15 38 8 15 28 61 45 102 17
41 37 89 45 105 7 17 23 55 36 85 12 30 33 78 46 107 13 28 23 55 23 60 0 4
10 28 21 53 12 25 30 63 39 85 9 22 26 60 38 85 11 25 29 66 41 92 49 112 65
146 88 198 38 83 68 149 93 205 12 28 30 68 41 90 10 22 29 65 42 95 56 125
68 152 87 193 11 24 20 48 20 54 0 6 6 16 14 22 8 7 18 27 22 44 3 18 10 37
14 42 5 6 35 72 69 147 33 76 64 145 69 155 12 24 45 98 72 158 12 28 33 75
47 105 13 30 32 73 42 95 9 22 27 60 38 85 12 25 31 68 43 95 12 28 33 75 47
105 14 30 33 73 43 95 9 22 26 60 38 85 11 25 29 66 41 93 48 107 64 145 87
195 13 28 35 76 48 105 13 28 34 75 46 102 36 83 61 139 116 260 7 17 21 50
30 75 24 68 49 131 68 172 9 21 16 42 16 49 0 6 7 23 15 37 8 15 22 46 30 70
8 23 22 61 30 85 8 23 22 54 30 69 8 14 15 32 15 38 0 7 9 31 19 54 17 36 30
73 81 216 82 233 143 526 155 750 4 63 13 156 20 205 13 88 23 227 46 648 14
264 14 663 0 787 -6 52 -15 151 -21 220 -6 69 -17 154 -25 190 -8 36 -17 88
-20 115 -4 28 -13 73 -20 100 -7 28 -16 70 -20 95 -3 25 -14 70 -24 100 -17
53 -38 121 -81 268 -10 37 -26 90 -35 117 -33 106 -58 204 -75 295 -10 52 -22
120 -28 150 -21 107 -37 307 -37 475 0 262 26 491 80 710 9 33 22 89 30 124 8
35 18 68 23 75 5 6 14 29 20 51 11 40 41 121 82 225 12 30 30 75 40 100 9 25
24 62 34 82 9 21 16 43 16 51 0 7 4 17 10 23 14 14 63 159 110 324 10 36 23
79 29 95 29 84 44 137 58 205 8 41 21 83 29 94 21 31 21 802 -1 832 -8 12 -21
50 -29 85 -16 70 -37 138 -67 211 -10 26 -19 54 -19 63 0 9 -9 33 -20 55 -11
22 -20 47 -20 57 0 10 -7 31 -15 47 -8 15 -21 51 -29 80 -8 28 -22 69 -30 91
-8 22 -15 48 -16 57 0 10 -6 32 -14 50 -8 18 -26 71 -40 118 -14 47 -32 108
-41 137 -8 29 -20 87 -25 130 -6 43 -19 101 -28 128 -24 70 -23 434 1 545 17
76 27 187 47 515 25 424 30 494 45 560 8 39 15 84 15 100 0 17 7 55 15 85 8
30 22 89 30 130 8 41 22 100 30 130 8 30 15 68 15 84 0 16 9 77 19 135 39 208
54 362 48 482 -7 143 -32 342 -47 369 -6 11 -15 46 -21 77 -6 32 -17 69 -24
83 -8 14 -35 70 -61 125 -79 164 -154 250 -256 293 -16 6 -28 16 -28 22 0 6
-45 10 -120 10 -96 0 -122 -3 -126 -14z m-4852 -4532 c113 -15 194 -41 278
-88 25 -14 62 -35 83 -46 69 -38 198 -179 245 -268 46 -86 82 -213 82 -286 0
-59 -34 -183 -66 -239 -84 -152 -285 -257 -491 -257 -180 0 -393 84 -548 216
-83 70 -158 182 -212 314 -25 62 -26 292 -2 330 10 14 20 36 24 48 10 36 59
103 98 137 107 93 188 125 389 154 4 1 58 -6 120 -15z m3437 -15 c69 -16 183
-76 229 -121 44 -43 112 -137 112 -155 0 -6 9 -30 20 -54 38 -85 22 -268 -33
-374 -6 -11 -17 -33 -25 -50 -24 -49 -117 -159 -174 -206 -71 -59 -102 -79
-173 -113 -33 -15 -69 -33 -80 -39 -17 -8 -144 -37 -167 -37 -21 0 -9 45 32
125 79 155 113 290 114 455 1 115 -17 227 -44 277 -11 21 -20 45 -20 53 0 9
-6 24 -14 35 -7 11 -17 31 -21 45 -4 14 -21 42 -38 64 l-31 38 -27 -33 c-15
-19 -40 -65 -54 -104 -15 -38 -33 -83 -42 -100 -24 -48 -45 -162 -50 -273 -5
-100 2 -147 38 -287 13 -48 74 -179 101 -218 11 -15 23 -41 28 -57 9 -30 8
-30 -33 -32 -95 -3 -234 22 -305 55 -219 102 -317 302 -271 551 21 116 117
274 219 363 80 69 242 163 281 163 8 0 20 5 25 10 6 6 30 14 55 19 62 12 295
13 348 0z"/>
<path d="M15629 21507 c-15 -18 -30 -44 -34 -57 -4 -14 -16 -41 -26 -60 -11
-19 -19 -41 -19 -48 0 -7 -7 -23 -15 -36 -24 -36 -50 -192 -48 -281 5 -163 57
-359 124 -465 5 -8 18 -32 28 -53 l18 -38 24 38 c93 151 129 260 150 455 9 80
8 109 -5 167 -9 38 -16 80 -16 93 0 13 -11 46 -25 73 -13 28 -25 57 -25 65 0
9 -6 24 -14 35 -7 11 -18 36 -25 56 -6 20 -24 48 -39 62 l-27 26 -26 -32z"/>
</g>
</svg>
